# xmcd
#
# Track frame offsets: 
#        150
#        13547
#        28669
#        52776
#        67823
#        80950
#        94347
#        107196
#        121178
#        151337
#        165056
#        177853
#
# Disc length: 2552 seconds
#
# Revision: 0
# Processed by: cddbd v1.5.2PL0 Copyright (c) Steve Scherf et al.
# Submitted via: ExactAudioCopy v0.99pb4
#
DISCID=8709f60c
DTITLE=Tony Kinsey - Fascinating Rhythm
DYEAR=1956
DGENRE=Jazz
TTITLE0=Starboard Bow
TTITLE1=Body and Soul
TTITLE2=Makin' Whoopee
TTITLE3=Lullaby of the Leaves
TTITLE4=Hey There
TTITLE5=Close Your Eyes
TTITLE6=Fascinating Rhythm
TTITLE7=A Smooth One
TTITLE8=Harlem
TTITLE9=She's Funny That Way
TTITLE10=Ballet
TTITLE11=Isolation
EXTD=
EXTT0=
EXTT1=
EXTT2=
EXTT3=
EXTT4=
EXTT5=
EXTT6=
EXTT7=
EXTT8=
EXTT9=
EXTT10=
EXTT11=
PLAYORDER=
